<?xml version="1.0" encoding="UTF-8"?>
<svg version="1.1" xmlns="http://www.w3.org/2000/svg" width="192" height="192">
<path d="M0 0 C63.36 0 126.72 0 192 0 C192 63.36 192 126.72 192 192 C128.64 192 65.28 192 0 192 C0 128.64 0 65.28 0 0 Z " fill="#0188FF" transform="translate(0,0)"/>
<path d="M0 0 C8.58 0 17.16 0 26 0 C29.04551531 11.22489929 31.83997727 22.42995956 34.21166992 33.81665039 C35.57157754 40.2838305 37.1968952 46.64224939 39 53 C42.49725714 42.47846469 45.29349401 31.90341306 47.80078125 21.10546875 C48.87981031 16.4674756 50.03111023 11.85312791 51.25 7.25 C51.72179687 5.46335937 51.72179687 5.46335937 52.203125 3.640625 C53 1 53 1 54 0 C55.92667507 -0.08748207 57.85651861 -0.10697334 59.78515625 -0.09765625 C60.95498047 -0.09443359 62.12480469 -0.09121094 63.33007812 -0.08789062 C64.56177734 -0.07951172 65.79347656 -0.07113281 67.0625 -0.0625 C68.91584961 -0.05573242 68.91584961 -0.05573242 70.80664062 -0.04882812 C73.87114117 -0.03699608 76.93554721 -0.02051173 80 0 C80.71384613 5.2357184 81.16557598 10.35552679 81.31640625 15.64453125 C81.34764587 16.71840088 81.34764587 16.71840088 81.3795166 17.81396484 C81.44528238 20.14670846 81.50438709 22.47955402 81.5625 24.8125 C81.58367889 25.61215179 81.60485779 26.41180359 81.62667847 27.23568726 C82.08766286 44.82443426 82.09732012 62.40668572 82 80 C75.73 80 69.46 80 63 80 C62.10557995 66.47847339 61.70283106 52.98454588 61.4375 39.4375 C61.3941744 37.34699909 61.35055639 35.25650422 61.30664062 33.16601562 C61.20106604 28.11074016 61.09941381 23.05540022 61 18 C60.62669556 19.60693726 60.62669556 19.60693726 60.24584961 21.24633789 C58.12525403 30.33924341 55.92260229 39.40321015 53.5625 48.4375 C53.264646 49.58259033 52.96679199 50.72768066 52.65991211 51.9074707 C50.20605937 61.30084798 47.63547454 70.6560448 45 80 C39.39 80 33.78 80 28 80 C24.53529588 67.58183368 21.23002494 55.15052063 18.30786133 42.59301758 C17.00453614 37.00721415 15.67849679 31.42695876 14.34765625 25.84765625 C14.00643738 24.4158905 14.00643738 24.4158905 13.6583252 22.9552002 C13.10576002 20.63675001 12.55298248 18.31835068 12 16 C11.97494385 17.2281543 11.9498877 18.45630859 11.92407227 19.72167969 C11.82822177 24.38124953 11.72847328 29.04072987 11.62768555 33.70019531 C11.58499431 35.69756951 11.5432902 37.69496511 11.50268555 39.69238281 C11.22836993 53.14400777 10.75133345 66.56634227 10 80 C6.37 80 2.74 80 -1 80 C-1.1951958 53.32324036 -0.59030114 26.66896218 0 0 Z " fill="#F9FCFF" transform="translate(16,56)"/>
<path d="M0 0 C6.27 0 12.54 0 19 0 C19 11.55 19 23.1 19 35 C26.39974398 34.83411928 26.39974398 34.83411928 28.86694336 32.36450195 C29.27050049 31.66284912 29.67405762 30.96119629 30.08984375 30.23828125 C30.55994873 29.45501465 31.03005371 28.67174805 31.5144043 27.86474609 C31.98402588 27.02250488 32.45364746 26.18026367 32.9375 25.3125 C33.9628937 23.58164722 34.98894186 21.85118199 36.015625 20.12109375 C36.51513672 19.2585498 37.01464844 18.39600586 37.52929688 17.50732422 C39.64733689 13.89638947 41.90660976 10.38445748 44.1875 6.875 C44.56189209 6.29016846 44.93628418 5.70533691 45.32202148 5.1027832 C47.87328978 1.12671022 47.87328978 1.12671022 49 0 C50.85287502 -0.07226502 52.70833878 -0.0838122 54.5625 -0.0625 C55.57441406 -0.05347656 56.58632812 -0.04445312 57.62890625 -0.03515625 C58.41136719 -0.02355469 59.19382813 -0.01195312 60 0 C58.41172898 3.32593386 56.56209692 6.42799928 54.625 9.5625 C54.28992432 10.10970703 53.95484863 10.65691406 53.60961914 11.22070312 C51.39124023 14.82378064 49.10351366 18.37299033 46.76953125 21.90234375 C46.21894043 22.74531006 45.66834961 23.58827637 45.10107422 24.45678711 C44.00422374 26.13361297 42.895387 27.80266775 41.77392578 29.46313477 C41.26974121 30.23842529 40.76555664 31.01371582 40.24609375 31.8125 C39.78904053 32.49957031 39.3319873 33.18664062 38.86108398 33.89453125 C37.70359525 36.72475038 38.06118154 38.10879091 39 41 C40.355266 43.63072303 40.355266 43.63072303 42.09765625 46.28125 C42.7311499 47.28269043 43.36464355 48.28413086 44.01733398 49.31591797 C44.69223877 50.36666504 45.36714355 51.41741211 46.0625 52.5 C47.42984203 54.65875629 48.79703072 56.81760972 50.1640625 58.9765625 C51.1545459 60.53165527 51.1545459 60.53165527 52.16503906 62.11816406 C54.44093438 65.6924946 56.70014261 69.27644569 58.9375 72.875 C59.54464844 73.84179688 60.15179688 74.80859375 60.77734375 75.8046875 C62 78 62 78 62 80 C55.39827706 80.8662679 48.52550291 81.64937758 42 80 C38.00524379 76.57592325 36.17175235 72.84203058 34.02148438 68.10986328 C32.20677508 64.36160379 29.8811859 60.93105397 27.625 57.4375 C26.80170623 56.12556407 25.98123478 54.81185132 25.1640625 53.49609375 C24.81811035 52.94107178 24.4721582 52.3860498 24.11572266 51.81420898 C22.72564156 49.55388236 21.36524741 47.27541236 20 45 C19.67 56.55 19.34 68.1 19 80 C12.73 80 6.46 80 0 80 C0 53.6 0 27.2 0 0 Z " fill="#FAFDFF" transform="translate(115,56)"/>
<path d="M0 0 C0.33 0.66 0.66 1.32 1 2 C1.66 2 2.32 2 3 2 C3 2.99 3 3.98 3 5 C3.99 5.33 4.98 5.66 6 6 C6 6.66 6 7.32 6 8 C6.99 8 7.98 8 9 8 C9 8.66 9 9.32 9 10 C9.66 10.33 10.32 10.66 11 11 C7.37 11 3.74 11 0 11 C0 7.37 0 3.74 0 0 Z " fill="#000000" transform="translate(0,181)"/>
<path d="M0 0 C0.33 0 0.66 0 1 0 C1 3.63 1 7.26 1 11 C-2.63 11 -6.26 11 -10 11 C-9.34 10.67 -8.68 10.34 -8 10 C-8 9.34 -8 8.68 -8 8 C-7.01 8 -6.02 8 -5 8 C-4.67 7.01 -4.34 6.02 -4 5 C-3.34 5 -2.68 5 -2 5 C-2 4.01 -2 3.02 -2 2 C-1.34 2 -0.68 2 0 2 C0 1.34 0 0.68 0 0 Z " fill="#000000" transform="translate(191,181)"/>
<path d="M0 0 C3.63 0 7.26 0 11 0 C11 3.63 11 7.26 11 11 C10.67 10.34 10.34 9.68 10 9 C9.34 9 8.68 9 8 9 C8 8.01 8 7.02 8 6 C7.01 5.67 6.02 5.34 5 5 C5 4.34 5 3.68 5 3 C2.525 2.01 2.525 2.01 0 1 C0 0.67 0 0.34 0 0 Z " fill="#000000" transform="translate(181,0)"/>
<path d="M0 0 C3.63 0 7.26 0 11 0 C9.515 1.485 9.515 1.485 8 3 C7.34 3 6.68 3 6 3 C5.67 3.99 5.34 4.98 5 6 C4.34 6 3.68 6 3 6 C3 6.99 3 7.98 3 9 C2.34 9 1.68 9 1 9 C0.67 9.66 0.34 10.32 0 11 C0 7.37 0 3.74 0 0 Z " fill="#000000" transform="translate(0,0)"/>
<path d="M0 0 C3.00617269 3.00617269 2.59585316 5.82381598 3 10 C2.34 10 1.68 10 1 10 C1 12.97 1 15.94 1 19 C0.67 19 0.34 19 0 19 C0 12.73 0 6.46 0 0 Z " fill="#46A8FF" transform="translate(27,70)"/>
</svg>
